<mxfile host="01bfd473-242f-4e6b-944a-e02ee7a4491d" modified="2020-09-16T13:30:03.173Z" agent="5.0 (Macintosh; Intel Mac OS X 10_14_6) AppleWebKit/537.36 (KHTML, like Gecko) Code/1.49.0 Chrome/83.0.4103.122 Electron/9.2.1 Safari/537.36" etag="UfwzRAi2DOJN9A1HKyyy" version="13.1.3">
    <diagram id="RdlPr2Q6MnW2luUlwpBi" name="architecture">
        <mxGraphModel dx="392" dy="711" grid="1" gridSize="10" guides="1" tooltips="1" connect="1" arrows="1" fold="1" page="1" pageScale="1" pageWidth="827" pageHeight="1169" math="0" shadow="0">
            <root>
                <mxCell id="1V4Hd56TM4v9YoMfYFqL-0"/>
                <mxCell id="1V4Hd56TM4v9YoMfYFqL-1" parent="1V4Hd56TM4v9YoMfYFqL-0"/>
                <mxCell id="1V4Hd56TM4v9YoMfYFqL-2" value="" style="rounded=1;whiteSpace=wrap;html=1;fillColor=#647687;strokeColor=#314354;fontColor=#ffffff;" parent="1V4Hd56TM4v9YoMfYFqL-1" vertex="1">
                    <mxGeometry x="1070" y="70" width="370" height="180" as="geometry"/>
                </mxCell>
                <mxCell id="1V4Hd56TM4v9YoMfYFqL-3" value="&lt;span style=&quot;font-size: 16px&quot;&gt;&lt;b&gt;the architecture of this stack&lt;/b&gt;&lt;/span&gt;" style="rounded=1;whiteSpace=wrap;html=1;" parent="1V4Hd56TM4v9YoMfYFqL-1" vertex="1">
                    <mxGeometry x="827" width="233" height="30" as="geometry"/>
                </mxCell>
                <mxCell id="1V4Hd56TM4v9YoMfYFqL-5" value="" style="outlineConnect=0;dashed=0;verticalLabelPosition=bottom;verticalAlign=top;align=center;html=1;shape=mxgraph.aws3.cloudwatch;fillColor=#759C3E;gradientColor=none;" parent="1V4Hd56TM4v9YoMfYFqL-1" vertex="1">
                    <mxGeometry x="1745.75" y="348.82" width="72.5" height="73" as="geometry"/>
                </mxCell>
                <mxCell id="1V4Hd56TM4v9YoMfYFqL-6" value="Cloud Watch&lt;br&gt;ログ監視（access.log,&lt;br&gt;function,&lt;br&gt;result&amp;nbsp;error.log）" style="rounded=1;whiteSpace=wrap;html=1;" parent="1V4Hd56TM4v9YoMfYFqL-1" vertex="1">
                    <mxGeometry x="1782" y="421.82" width="105" height="75.75" as="geometry"/>
                </mxCell>
                <mxCell id="1V4Hd56TM4v9YoMfYFqL-7" value="" style="endArrow=none;html=1;" parent="1V4Hd56TM4v9YoMfYFqL-1" edge="1">
                    <mxGeometry width="50" height="50" relative="1" as="geometry">
                        <mxPoint x="1349" y="660" as="sourcePoint"/>
                        <mxPoint x="1349.07" y="338.82" as="targetPoint"/>
                    </mxGeometry>
                </mxCell>
                <mxCell id="1V4Hd56TM4v9YoMfYFqL-8" value="" style="endArrow=none;html=1;" parent="1V4Hd56TM4v9YoMfYFqL-1" edge="1">
                    <mxGeometry width="50" height="50" relative="1" as="geometry">
                        <mxPoint x="1353" y="338.82" as="sourcePoint"/>
                        <mxPoint x="1904.75" y="338.82" as="targetPoint"/>
                        <Array as="points">
                            <mxPoint x="1737.5" y="338.82"/>
                        </Array>
                    </mxGeometry>
                </mxCell>
                <mxCell id="1V4Hd56TM4v9YoMfYFqL-9" value="" style="endArrow=none;html=1;" parent="1V4Hd56TM4v9YoMfYFqL-1" edge="1">
                    <mxGeometry width="50" height="50" relative="1" as="geometry">
                        <mxPoint x="1905" y="660" as="sourcePoint"/>
                        <mxPoint x="1905" y="338.82" as="targetPoint"/>
                    </mxGeometry>
                </mxCell>
                <mxCell id="1V4Hd56TM4v9YoMfYFqL-10" value="" style="endArrow=none;html=1;" parent="1V4Hd56TM4v9YoMfYFqL-1" edge="1">
                    <mxGeometry width="50" height="50" relative="1" as="geometry">
                        <mxPoint x="1349.13" y="658.82" as="sourcePoint"/>
                        <mxPoint x="1903.88" y="658.82" as="targetPoint"/>
                        <Array as="points">
                            <mxPoint x="1740.13" y="658.82"/>
                        </Array>
                    </mxGeometry>
                </mxCell>
                <mxCell id="1V4Hd56TM4v9YoMfYFqL-12" value="S3&lt;br&gt;静的Webコンテンツ" style="rounded=1;whiteSpace=wrap;html=1;" parent="1V4Hd56TM4v9YoMfYFqL-1" vertex="1">
                    <mxGeometry x="1418.82" y="428.82" width="128.37" height="30" as="geometry"/>
                </mxCell>
                <mxCell id="1V4Hd56TM4v9YoMfYFqL-13" value="" style="endArrow=classic;html=1;exitX=0.305;exitY=0.037;exitDx=0;exitDy=0;exitPerimeter=0;entryX=0;entryY=0.21;entryDx=0;entryDy=0;entryPerimeter=0;" parent="1V4Hd56TM4v9YoMfYFqL-1" source="1V4Hd56TM4v9YoMfYFqL-27" target="y1uZQRvIRHTs39_nLoEU-7" edge="1">
                    <mxGeometry width="50" height="50" relative="1" as="geometry">
                        <mxPoint x="1050.18" y="708" as="sourcePoint"/>
                        <mxPoint x="1160" y="392" as="targetPoint"/>
                        <Array as="points">
                            <mxPoint x="1050.18" y="395"/>
                        </Array>
                    </mxGeometry>
                </mxCell>
                <mxCell id="1V4Hd56TM4v9YoMfYFqL-14" value="" style="outlineConnect=0;dashed=0;verticalLabelPosition=bottom;verticalAlign=top;align=center;html=1;shape=mxgraph.aws3.cloud_2;fillColor=#F58534;gradientColor=none;" parent="1V4Hd56TM4v9YoMfYFqL-1" vertex="1">
                    <mxGeometry x="1350" y="338.82" width="43" height="40" as="geometry"/>
                </mxCell>
                <mxCell id="1V4Hd56TM4v9YoMfYFqL-16" value="" style="endArrow=classic;html=1;entryX=0.606;entryY=0.049;entryDx=0;entryDy=0;entryPerimeter=0;" parent="1V4Hd56TM4v9YoMfYFqL-1" target="1V4Hd56TM4v9YoMfYFqL-27" edge="1">
                    <mxGeometry width="50" height="50" relative="1" as="geometry">
                        <mxPoint x="1180" y="418" as="sourcePoint"/>
                        <mxPoint x="1081.6760000000002" y="706.6279999999999" as="targetPoint"/>
                        <Array as="points">
                            <mxPoint x="1081.18" y="418"/>
                        </Array>
                    </mxGeometry>
                </mxCell>
                <mxCell id="1V4Hd56TM4v9YoMfYFqL-26" style="edgeStyle=orthogonalEdgeStyle;rounded=0;orthogonalLoop=1;jettySize=auto;html=1;exitX=0.5;exitY=1;exitDx=0;exitDy=0;" parent="1V4Hd56TM4v9YoMfYFqL-1" edge="1">
                    <mxGeometry relative="1" as="geometry">
                        <mxPoint x="1686" y="1020" as="sourcePoint"/>
                        <mxPoint x="1686" y="1020" as="targetPoint"/>
                    </mxGeometry>
                </mxCell>
                <mxCell id="1V4Hd56TM4v9YoMfYFqL-27" value="" style="shape=mxgraph.signs.tech.computer;html=1;fillColor=#eeeeee;strokeColor=#36393d;verticalLabelPosition=bottom;verticalAlign=top;align=center;opacity=80;" parent="1V4Hd56TM4v9YoMfYFqL-1" vertex="1">
                    <mxGeometry x="1020.8100000000001" y="515" width="98" height="98" as="geometry"/>
                </mxCell>
                <mxCell id="1V4Hd56TM4v9YoMfYFqL-49" value="" style="outlineConnect=0;dashed=0;verticalLabelPosition=bottom;verticalAlign=top;align=center;html=1;shape=mxgraph.aws3.s3;fillColor=#E05243;gradientColor=none;" parent="1V4Hd56TM4v9YoMfYFqL-1" vertex="1">
                    <mxGeometry x="1452.12" y="358.82" width="65.5" height="67" as="geometry"/>
                </mxCell>
                <mxCell id="1V4Hd56TM4v9YoMfYFqL-50" value="&lt;font style=&quot;font-size: 16px&quot;&gt;東京リージョン&lt;/font&gt;" style="rounded=1;whiteSpace=wrap;html=1;" parent="1V4Hd56TM4v9YoMfYFqL-1" vertex="1">
                    <mxGeometry x="1350" y="290" width="120" height="38.82" as="geometry"/>
                </mxCell>
                <mxCell id="1V4Hd56TM4v9YoMfYFqL-51" value="" style="outlineConnect=0;dashed=0;verticalLabelPosition=bottom;verticalAlign=top;align=center;html=1;shape=mxgraph.aws3.codepipeline;fillColor=#759C3E;gradientColor=none;" parent="1V4Hd56TM4v9YoMfYFqL-1" vertex="1">
                    <mxGeometry x="1050" y="40" width="63.5" height="71" as="geometry"/>
                </mxCell>
                <mxCell id="1V4Hd56TM4v9YoMfYFqL-52" value="" style="outlineConnect=0;dashed=0;verticalLabelPosition=bottom;verticalAlign=top;align=center;html=1;shape=mxgraph.aws3.codecommit;fillColor=#759C3E;gradientColor=none;" parent="1V4Hd56TM4v9YoMfYFqL-1" vertex="1">
                    <mxGeometry x="1104.25" y="130" width="76.5" height="93" as="geometry"/>
                </mxCell>
                <mxCell id="1V4Hd56TM4v9YoMfYFqL-53" value="" style="outlineConnect=0;dashed=0;verticalLabelPosition=bottom;verticalAlign=top;align=center;html=1;shape=mxgraph.aws3.codebuild;fillColor=#759C3E;gradientColor=none;" parent="1V4Hd56TM4v9YoMfYFqL-1" vertex="1">
                    <mxGeometry x="1301.87" y="130" width="76.5" height="93" as="geometry"/>
                </mxCell>
                <mxCell id="1V4Hd56TM4v9YoMfYFqL-54" value="" style="endArrow=classic;html=1;exitX=1;exitY=0.5;exitDx=0;exitDy=0;exitPerimeter=0;entryX=0;entryY=0.5;entryDx=0;entryDy=0;entryPerimeter=0;" parent="1V4Hd56TM4v9YoMfYFqL-1" source="1V4Hd56TM4v9YoMfYFqL-52" target="1V4Hd56TM4v9YoMfYFqL-53" edge="1">
                    <mxGeometry width="50" height="50" relative="1" as="geometry">
                        <mxPoint x="1200" y="200" as="sourcePoint"/>
                        <mxPoint x="1250" y="150" as="targetPoint"/>
                    </mxGeometry>
                </mxCell>
                <mxCell id="1V4Hd56TM4v9YoMfYFqL-55" value="" style="endArrow=classic;html=1;exitX=1;exitY=0.5;exitDx=0;exitDy=0;exitPerimeter=0;entryX=0.5;entryY=0;entryDx=0;entryDy=0;entryPerimeter=0;" parent="1V4Hd56TM4v9YoMfYFqL-1" source="1V4Hd56TM4v9YoMfYFqL-53" target="1V4Hd56TM4v9YoMfYFqL-49" edge="1">
                    <mxGeometry width="50" height="50" relative="1" as="geometry">
                        <mxPoint x="1410" y="260" as="sourcePoint"/>
                        <mxPoint x="1460" y="210" as="targetPoint"/>
                        <Array as="points">
                            <mxPoint x="1485" y="177"/>
                        </Array>
                    </mxGeometry>
                </mxCell>
                <mxCell id="1V4Hd56TM4v9YoMfYFqL-56" value="" style="shape=mxgraph.signs.tech.computer;html=1;fillColor=#eeeeee;strokeColor=#36393d;verticalLabelPosition=bottom;verticalAlign=top;align=center;opacity=80;" parent="1V4Hd56TM4v9YoMfYFqL-1" vertex="1">
                    <mxGeometry x="837" y="140" width="98" height="98" as="geometry"/>
                </mxCell>
                <mxCell id="1V4Hd56TM4v9YoMfYFqL-57" value="" style="endArrow=classic;html=1;exitX=0.966;exitY=0.385;exitDx=0;exitDy=0;exitPerimeter=0;entryX=0;entryY=0.5;entryDx=0;entryDy=0;entryPerimeter=0;" parent="1V4Hd56TM4v9YoMfYFqL-1" source="1V4Hd56TM4v9YoMfYFqL-56" target="1V4Hd56TM4v9YoMfYFqL-52" edge="1">
                    <mxGeometry width="50" height="50" relative="1" as="geometry">
                        <mxPoint x="990" y="210" as="sourcePoint"/>
                        <mxPoint x="1040" y="160" as="targetPoint"/>
                    </mxGeometry>
                </mxCell>
                <mxCell id="1V4Hd56TM4v9YoMfYFqL-58" value="CodePipeline" style="rounded=1;whiteSpace=wrap;html=1;" parent="1V4Hd56TM4v9YoMfYFqL-1" vertex="1">
                    <mxGeometry x="1040" y="111" width="83.5" height="20" as="geometry"/>
                </mxCell>
                <mxCell id="1V4Hd56TM4v9YoMfYFqL-59" value="CodeCommit" style="rounded=1;whiteSpace=wrap;html=1;" parent="1V4Hd56TM4v9YoMfYFqL-1" vertex="1">
                    <mxGeometry x="1104.25" y="223" width="83.5" height="20" as="geometry"/>
                </mxCell>
                <mxCell id="1V4Hd56TM4v9YoMfYFqL-60" value="CodeBuild" style="rounded=1;whiteSpace=wrap;html=1;" parent="1V4Hd56TM4v9YoMfYFqL-1" vertex="1">
                    <mxGeometry x="1350" y="218" width="83.5" height="20" as="geometry"/>
                </mxCell>
                <mxCell id="1V4Hd56TM4v9YoMfYFqL-61" value="push / pull" style="rounded=1;whiteSpace=wrap;html=1;" parent="1V4Hd56TM4v9YoMfYFqL-1" vertex="1">
                    <mxGeometry x="956.5" y="190" width="83.5" height="20" as="geometry"/>
                </mxCell>
                <mxCell id="1V4Hd56TM4v9YoMfYFqL-65" value="" style="shape=image;html=1;verticalAlign=top;verticalLabelPosition=bottom;labelBackgroundColor=#ffffff;imageAspect=0;aspect=fixed;image=https://cdn4.iconfinder.com/data/icons/logos-and-brands/512/367_Vuejs_logo-128.png" parent="1V4Hd56TM4v9YoMfYFqL-1" vertex="1">
                    <mxGeometry x="1494.75" y="338.82" width="55" height="55" as="geometry"/>
                </mxCell>
                <mxCell id="1V4Hd56TM4v9YoMfYFqL-66" value="" style="outlineConnect=0;dashed=0;verticalLabelPosition=bottom;verticalAlign=top;align=center;html=1;shape=mxgraph.aws3.api_gateway;fillColor=#D9A741;gradientColor=none;" parent="1V4Hd56TM4v9YoMfYFqL-1" vertex="1">
                    <mxGeometry x="1447.37" y="521.82" width="64.63" height="67.5" as="geometry"/>
                </mxCell>
                <mxCell id="1V4Hd56TM4v9YoMfYFqL-68" value="your-function" style="rounded=1;whiteSpace=wrap;html=1;" parent="1V4Hd56TM4v9YoMfYFqL-1" vertex="1">
                    <mxGeometry x="1577.38" y="601.82" width="108.49" height="33" as="geometry"/>
                </mxCell>
                <mxCell id="1V4Hd56TM4v9YoMfYFqL-69" value="" style="outlineConnect=0;dashed=0;verticalLabelPosition=bottom;verticalAlign=top;align=center;html=1;shape=mxgraph.aws3.lambda;fillColor=#F58534;gradientColor=none;" parent="1V4Hd56TM4v9YoMfYFqL-1" vertex="1">
                    <mxGeometry x="1599.58" y="521.82" width="67" height="70" as="geometry"/>
                </mxCell>
                <mxCell id="1V4Hd56TM4v9YoMfYFqL-70" value="" style="endArrow=classic;html=1;entryX=0;entryY=0.21;entryDx=0;entryDy=0;entryPerimeter=0;" parent="1V4Hd56TM4v9YoMfYFqL-1" target="1V4Hd56TM4v9YoMfYFqL-66" edge="1">
                    <mxGeometry width="50" height="50" relative="1" as="geometry">
                        <mxPoint x="1115.13" y="540" as="sourcePoint"/>
                        <mxPoint x="1255.63" y="799.41" as="targetPoint"/>
                        <Array as="points"/>
                    </mxGeometry>
                </mxCell>
                <mxCell id="1V4Hd56TM4v9YoMfYFqL-71" value="" style="endArrow=classic;html=1;exitX=0;exitY=0.8;exitDx=0;exitDy=0;exitPerimeter=0;entryX=1.014;entryY=0.653;entryDx=0;entryDy=0;entryPerimeter=0;" parent="1V4Hd56TM4v9YoMfYFqL-1" source="1V4Hd56TM4v9YoMfYFqL-66" target="1V4Hd56TM4v9YoMfYFqL-27" edge="1">
                    <mxGeometry width="50" height="50" relative="1" as="geometry">
                        <mxPoint x="1246.88" y="890.4000000000001" as="sourcePoint"/>
                        <mxPoint x="924.1300000000002" y="890" as="targetPoint"/>
                        <Array as="points"/>
                    </mxGeometry>
                </mxCell>
                <mxCell id="1V4Hd56TM4v9YoMfYFqL-72" value="" style="endArrow=classic;startArrow=classic;html=1;entryX=0;entryY=0.5;entryDx=0;entryDy=0;entryPerimeter=0;" parent="1V4Hd56TM4v9YoMfYFqL-1" source="1V4Hd56TM4v9YoMfYFqL-66" target="1V4Hd56TM4v9YoMfYFqL-69" edge="1">
                    <mxGeometry width="50" height="50" relative="1" as="geometry">
                        <mxPoint x="1517.72" y="561.82" as="sourcePoint"/>
                        <mxPoint x="1597.32" y="561.82" as="targetPoint"/>
                    </mxGeometry>
                </mxCell>
                <mxCell id="1V4Hd56TM4v9YoMfYFqL-73" value="" style="shape=image;html=1;verticalAlign=top;verticalLabelPosition=bottom;labelBackgroundColor=#ffffff;imageAspect=0;aspect=fixed;image=https://cdn2.iconfinder.com/data/icons/amazon-aws-stencils/100/Database_copy_DynamoDB-128.png" parent="1V4Hd56TM4v9YoMfYFqL-1" vertex="1">
                    <mxGeometry x="1744.88" y="511.82000000000005" width="91" height="91" as="geometry"/>
                </mxCell>
                <mxCell id="1V4Hd56TM4v9YoMfYFqL-74" value="" style="endArrow=classic;startArrow=classic;html=1;exitX=1;exitY=0.5;exitDx=0;exitDy=0;exitPerimeter=0;" parent="1V4Hd56TM4v9YoMfYFqL-1" source="1V4Hd56TM4v9YoMfYFqL-69" target="1V4Hd56TM4v9YoMfYFqL-73" edge="1">
                    <mxGeometry width="50" height="50" relative="1" as="geometry">
                        <mxPoint x="1672.23" y="556.73" as="sourcePoint"/>
                        <mxPoint x="1744.88" y="556.73" as="targetPoint"/>
                    </mxGeometry>
                </mxCell>
                <mxCell id="1V4Hd56TM4v9YoMfYFqL-84" value="" style="shape=image;html=1;verticalAlign=top;verticalLabelPosition=bottom;labelBackgroundColor=#ffffff;imageAspect=0;aspect=fixed;image=https://cdn2.iconfinder.com/data/icons/designer-skills/128/react-128.png" parent="1V4Hd56TM4v9YoMfYFqL-1" vertex="1">
                    <mxGeometry x="1552.95" y="338.82" width="60" height="60" as="geometry"/>
                </mxCell>
                <mxCell id="1V4Hd56TM4v9YoMfYFqL-87" value="your-gateway" style="rounded=1;whiteSpace=wrap;html=1;" parent="1V4Hd56TM4v9YoMfYFqL-1" vertex="1">
                    <mxGeometry x="1427.89" y="601.82" width="108.49" height="33" as="geometry"/>
                </mxCell>
                <mxCell id="1V4Hd56TM4v9YoMfYFqL-88" value="your-table" style="rounded=1;whiteSpace=wrap;html=1;" parent="1V4Hd56TM4v9YoMfYFqL-1" vertex="1">
                    <mxGeometry x="1736.14" y="601.82" width="108.49" height="33" as="geometry"/>
                </mxCell>
                <mxCell id="1V4Hd56TM4v9YoMfYFqL-89" value="" style="shape=image;html=1;verticalAlign=top;verticalLabelPosition=bottom;labelBackgroundColor=#ffffff;imageAspect=0;aspect=fixed;image=https://cdn0.iconfinder.com/data/icons/work-from-home-18/512/DocumentManagement-documentation-folder-projectmanagement-filemanagement-128.png" parent="1V4Hd56TM4v9YoMfYFqL-1" vertex="1">
                    <mxGeometry x="857.4100000000001" y="147.91000000000003" width="57.18" height="57.18" as="geometry"/>
                </mxCell>
                <mxCell id="1V4Hd56TM4v9YoMfYFqL-90" value="" style="pointerEvents=1;shadow=0;dashed=0;html=1;strokeColor=#006EAF;labelPosition=center;verticalLabelPosition=bottom;verticalAlign=top;align=center;fillColor=#1ba1e2;shape=mxgraph.mscae.intune.user_group;fontColor=#ffffff;" parent="1V4Hd56TM4v9YoMfYFqL-1" vertex="1">
                    <mxGeometry x="955.63" y="586" width="66.64" height="50" as="geometry"/>
                </mxCell>
                <mxCell id="1V4Hd56TM4v9YoMfYFqL-91" value="" style="pointerEvents=1;shadow=0;dashed=0;html=1;strokeColor=#006EAF;fillColor=#1ba1e2;labelPosition=center;verticalLabelPosition=bottom;verticalAlign=top;outlineConnect=0;align=center;shape=mxgraph.office.sites.site_team;fontColor=#ffffff;" parent="1V4Hd56TM4v9YoMfYFqL-1" vertex="1">
                    <mxGeometry x="914.59" y="243" width="60" height="49" as="geometry"/>
                </mxCell>
                <mxCell id="1V4Hd56TM4v9YoMfYFqL-92" value="developers" style="rounded=1;whiteSpace=wrap;html=1;" parent="1V4Hd56TM4v9YoMfYFqL-1" vertex="1">
                    <mxGeometry x="902.84" y="300" width="83.5" height="20" as="geometry"/>
                </mxCell>
                <mxCell id="1V4Hd56TM4v9YoMfYFqL-93" value="users" style="rounded=1;whiteSpace=wrap;html=1;" parent="1V4Hd56TM4v9YoMfYFqL-1" vertex="1">
                    <mxGeometry x="947.2" y="640" width="83.5" height="20" as="geometry"/>
                </mxCell>
                <mxCell id="YR5qknhH75OjI4QVviJk-4" value="サービス部分" style="rounded=1;whiteSpace=wrap;html=1;" parent="1V4Hd56TM4v9YoMfYFqL-1" vertex="1">
                    <mxGeometry x="1824.75" y="308.82" width="83.5" height="20" as="geometry"/>
                </mxCell>
                <mxCell id="YR5qknhH75OjI4QVviJk-5" value="CI/CD部分" style="rounded=1;whiteSpace=wrap;html=1;" parent="1V4Hd56TM4v9YoMfYFqL-1" vertex="1">
                    <mxGeometry x="1345.26" y="40" width="83.5" height="20" as="geometry"/>
                </mxCell>
                <mxCell id="y1uZQRvIRHTs39_nLoEU-1" value="" style="outlineConnect=0;dashed=0;verticalLabelPosition=bottom;verticalAlign=top;align=center;html=1;shape=mxgraph.aws3.cloud_2;fillColor=#F58534;gradientColor=none;" parent="1V4Hd56TM4v9YoMfYFqL-1" vertex="1">
                    <mxGeometry x="1160" y="338.82" width="43" height="40" as="geometry"/>
                </mxCell>
                <mxCell id="y1uZQRvIRHTs39_nLoEU-3" value="" style="endArrow=none;html=1;" parent="1V4Hd56TM4v9YoMfYFqL-1" edge="1">
                    <mxGeometry width="50" height="50" relative="1" as="geometry">
                        <mxPoint x="1160" y="660" as="sourcePoint"/>
                        <mxPoint x="1160.25" y="338.81999999999994" as="targetPoint"/>
                    </mxGeometry>
                </mxCell>
                <mxCell id="y1uZQRvIRHTs39_nLoEU-4" value="" style="endArrow=none;html=1;" parent="1V4Hd56TM4v9YoMfYFqL-1" edge="1">
                    <mxGeometry width="50" height="50" relative="1" as="geometry">
                        <mxPoint x="1160" y="337.63999999999993" as="sourcePoint"/>
                        <mxPoint x="1280" y="338" as="targetPoint"/>
                        <Array as="points"/>
                    </mxGeometry>
                </mxCell>
                <mxCell id="y1uZQRvIRHTs39_nLoEU-5" value="" style="endArrow=none;html=1;" parent="1V4Hd56TM4v9YoMfYFqL-1" edge="1">
                    <mxGeometry width="50" height="50" relative="1" as="geometry">
                        <mxPoint x="1159.13" y="659.9999999999999" as="sourcePoint"/>
                        <mxPoint x="1279.13" y="660.36" as="targetPoint"/>
                        <Array as="points"/>
                    </mxGeometry>
                </mxCell>
                <mxCell id="y1uZQRvIRHTs39_nLoEU-6" value="" style="endArrow=none;html=1;" parent="1V4Hd56TM4v9YoMfYFqL-1" edge="1">
                    <mxGeometry width="50" height="50" relative="1" as="geometry">
                        <mxPoint x="1280" y="660" as="sourcePoint"/>
                        <mxPoint x="1280.25" y="338.81999999999994" as="targetPoint"/>
                    </mxGeometry>
                </mxCell>
                <mxCell id="y1uZQRvIRHTs39_nLoEU-7" value="" style="outlineConnect=0;dashed=0;verticalLabelPosition=bottom;verticalAlign=top;align=center;html=1;shape=mxgraph.aws3.cloudfront;fillColor=#F58536;gradientColor=none;" parent="1V4Hd56TM4v9YoMfYFqL-1" vertex="1">
                    <mxGeometry x="1190" y="378.82" width="59.25" height="66.18" as="geometry"/>
                </mxCell>
                <mxCell id="y1uZQRvIRHTs39_nLoEU-8" value="" style="endArrow=classic;html=1;exitX=1;exitY=0.21;exitDx=0;exitDy=0;exitPerimeter=0;entryX=0;entryY=0.5;entryDx=0;entryDy=0;entryPerimeter=0;" parent="1V4Hd56TM4v9YoMfYFqL-1" source="y1uZQRvIRHTs39_nLoEU-7" target="1V4Hd56TM4v9YoMfYFqL-49" edge="1">
                    <mxGeometry width="50" height="50" relative="1" as="geometry">
                        <mxPoint x="1290" y="436.90999999999997" as="sourcePoint"/>
                        <mxPoint x="1340" y="386.90999999999997" as="targetPoint"/>
                    </mxGeometry>
                </mxCell>
                <mxCell id="y1uZQRvIRHTs39_nLoEU-9" value="" style="endArrow=classic;html=1;exitX=0;exitY=0.79;exitDx=0;exitDy=0;exitPerimeter=0;entryX=1;entryY=0.5;entryDx=0;entryDy=0;entryPerimeter=0;" parent="1V4Hd56TM4v9YoMfYFqL-1" source="1V4Hd56TM4v9YoMfYFqL-49" target="y1uZQRvIRHTs39_nLoEU-7" edge="1">
                    <mxGeometry width="50" height="50" relative="1" as="geometry">
                        <mxPoint x="1290" y="480" as="sourcePoint"/>
                        <mxPoint x="1340" y="430" as="targetPoint"/>
                    </mxGeometry>
                </mxCell>
                <mxCell id="y1uZQRvIRHTs39_nLoEU-10" value="CloudfFont" style="rounded=1;whiteSpace=wrap;html=1;" parent="1V4Hd56TM4v9YoMfYFqL-1" vertex="1">
                    <mxGeometry x="1170" y="444.69" width="100" height="30" as="geometry"/>
                </mxCell>
                <mxCell id="iKqYn6PCyMQMWQ9hPG8o-0" value="&lt;font style=&quot;font-size: 16px&quot;&gt;グローバル&lt;/font&gt;" style="rounded=1;whiteSpace=wrap;html=1;" parent="1V4Hd56TM4v9YoMfYFqL-1" vertex="1">
                    <mxGeometry x="1159.63" y="290" width="120" height="38.82" as="geometry"/>
                </mxCell>
                <mxCell id="iKqYn6PCyMQMWQ9hPG8o-1" value="https://~.cloudfront.net/your-resource" style="rounded=1;whiteSpace=wrap;html=1;" parent="1V4Hd56TM4v9YoMfYFqL-1" vertex="1">
                    <mxGeometry x="839.13" y="480" width="204.59" height="20" as="geometry"/>
                </mxCell>
            </root>
        </mxGraphModel>
    </diagram>
</mxfile>